# File created by Blade
# Date/Time:  Tue Jan 27 19:00:46 2015
#---------------------------------------------------------
:version 1.10
:name HOM
:units
  mass 1.0
  length 1.000000
  angle deg
:documentation
     Acclaim Skeleton File
:root
   axis xyz
   order TX TY TZ RX RY RZ
   position 0.000000 0.000000 0.000000
   orientation 0 0 0
:bonedata
   begin
      id 1
      name Spine_dum
      direction 0.000000 1.000000 0.000000
      length 5.195262
      axis 0.0 0.0 0.0 xyz
   end
   begin
      id 2
      name LeftUpLeg_dum
      direction 1.000000 0.000000 0.000000
      length 3.351363
      axis 0.0 0.0 0.0 xyz
   end
   begin
      id 3
      name RightUpLeg_dum
      direction -1.000000 0.000000 0.000000
      length 3.351363
      axis 0.0 0.0 0.0 xyz
   end
   begin
      id 4
      name Spine
      direction 0.000000 1.000000 0.000000
      length 0.000000
      axis 0.0 0.0 0.0 xyz
      dof rx ry rz
   end
   begin
      id 5
      name Spine_dum1
      direction 0.000000 1.000000 0.000000
      length 15.653875
      axis 0.0 0.0 0.0 xyz
   end
   begin
      id 6
      name Spine_dum2
      direction 0.000000 1.000000 0.000000
      length 10.329768
      axis 0.0 0.0 0.0 xyz
   end
   begin
      id 7
      name Spine_dum3
      direction 0.000000 1.000000 0.000000
      length 10.329768
      axis 0.0 0.0 0.0 xyz
   end
   begin
      id 8
      name Head
      direction 0.000000 1.000000 0.000000
      length 4.527550
      axis 0.0 0.0 0.0 xyz
      dof rx ry rz
   end
   begin
      id 9
      name LeftShoulder
      direction 1.000000 0.000000 0.000000
      length 6.996006
      axis 0.0 0.0 -90.0 xyz
      dof rx ry rz
   end
   begin
      id 10
      name LeftArm
      direction 1.000000 0.000000 0.000000
      length 10.209302
      axis 0.0 0.0 -90.0 xyz
      dof rx ry rz
   end
   begin
      id 11
      name LeftForeArm
      direction 1.000000 0.000000 0.000000
      length 8.563163
      axis 0.0 0.0 -90.0 xyz
      dof ry rz rx
   end
   begin
      id 12
      name LeftHand
      direction 0.000000 0.000000 0.000000
      length 0.000000
      axis 0.0 0.0 -90.0 xyz
      dof rx ry rz
   end
   begin
      id 13
      name LeftHand_dum1
      direction 0.000000 0.000000 0.000000
      length 0.000000
      axis 0.0 0.0 -90.0 xyz
   end
   begin
      id 14
      name LeftHand_dum2
      direction 1.000000 0.000000 0.000000
      length 3.937000
      axis 0.0 0.0 -90.0 xyz
   end
   begin
      id 15
      name LeftHandThumb1
      direction 0.000000 0.000000 1.000000
      length 3.937000
      axis 0.0 0.0 -90.0 xyz
      dof rx rz ry
   end
   begin
      id 16
      name RightShoulder
      direction -1.000000 0.000000 0.000000
      length 6.996006
      axis 0.0 0.0 90.0 xyz
      dof rx ry rz
   end
   begin
      id 17
      name RightArm
      direction -1.000000 0.000000 0.000000
      length 10.209302
      axis 0.0 0.0 90.0 xyz
      dof rx ry rz
   end
   begin
      id 18
      name RightForeArm
      direction -1.000000 0.000000 0.000000
      length 8.563163
      axis 0.0 0.0 90.0 xyz
      dof ry rz rx
   end
   begin
      id 19
      name RightHand
      direction 0.000000 0.000000 0.000000
      length 0.000000
      axis 0.0 0.0 90.0 xyz
      dof rx ry rz
   end
   begin
      id 20
      name RightHand_dum1
      direction 0.000000 0.000000 0.000000
      length 0.000000
      axis 0.0 0.0 90.0 xyz
   end
   begin
      id 21
      name RightHand_dum2
      direction -1.000000 0.000000 0.000000
      length 3.937000
      axis 0.0 0.0 90.0 xyz
   end
   begin
      id 22
      name RightHandThumb1
      direction 0.000000 0.000000 1.000000
      length 3.937000
      axis 0.0 0.0 90.0 xyz
      dof rx rz ry
   end
   begin
      id 23
      name LeftUpLeg
      direction 0.000000 -1.000000 0.000000
      length 16.346831
      axis 0.0 0.0 0.0 xyz
      dof rx ry rz
   end
   begin
      id 24
      name LeftLeg
      direction 0.000000 -1.000000 0.000000
      length 13.959795
      axis 0.0 0.0 0.0 xyz
      dof rx ry rz
   end
   begin
      id 25
      name LeftFoot
      direction 0.000000 -0.258819 0.965926
      length 5.165550
      axis 15.0 0.0 0.0 xyz
      dof rx ry rz
   end
   begin
      id 26
      name LeftToeBase
      direction 0.000000 0.000000 1.000000
      length 2.952750
      axis 0.0 0.0 0.0 xyz
      dof rx ry rz
   end
   begin
      id 27
      name RightUpLeg
      direction 0.000000 -1.000000 0.000000
      length 16.346831
      axis 0.0 0.0 0.0 xyz
      dof rx ry rz
   end
   begin
      id 28
      name RightLeg
      direction 0.000000 -1.000000 0.000000
      length 13.959795
      axis 0.0 0.0 0.0 xyz
      dof rx ry rz
   end
   begin
      id 29
      name RightFoot
      direction 0.000000 -0.258819 0.965926
      length 5.165550
      axis 15.0 0.0 0.0 xyz
      dof rx ry rz
   end
   begin
      id 30
      name RightToeBase
      direction 0.000000 0.000000 1.000000
      length 2.952750
      axis 0.0 0.0 0.0 xyz
      dof rx ry rz
   end
:hierarchy
   begin
      root Spine_dum LeftUpLeg_dum RightUpLeg_dum
      Spine_dum Spine
      LeftUpLeg_dum LeftUpLeg
      RightUpLeg_dum RightUpLeg
      Spine Spine_dum1 Spine_dum2 Spine_dum3
      Spine_dum1 Head
      Spine_dum2 LeftShoulder
      Spine_dum3 RightShoulder
      LeftShoulder LeftArm
      LeftArm LeftForeArm
      LeftForeArm LeftHand
      LeftHand LeftHand_dum1 LeftHand_dum2
      LeftHand_dum1 LeftHandThumb1
      RightShoulder RightArm
      RightArm RightForeArm
      RightForeArm RightHand
      RightHand RightHand_dum1 RightHand_dum2
      RightHand_dum1 RightHandThumb1
      LeftUpLeg LeftLeg
      LeftLeg LeftFoot
      LeftFoot LeftToeBase
      RightUpLeg RightLeg
      RightLeg RightFoot
      RightFoot RightToeBase
   end

# File created by Blade
# Date/Time:  Tue Jan 27 19:00:36 2015
# Frame Rate: 120.000 fps
#------------------------------------------------------
:FULLY-SPECIFIED
:DEGREES
1333
root -1.641167 31.722841 -5.126010 3.882647 7.810020 -3.905566
Spine -1.889955 -6.482419 0.150386
Head 23.917811 -3.242679 6.651226
LeftShoulder -16.475077 14.590614 15.416804
LeftArm 12.159080 -43.851794 -72.537771
LeftForeArm -4.792092 -0.000000 75.152055
LeftHand -10.885395 0.000000 27.840830
LeftHandThumb1 -26.253704 0.000000 33.147579
RightShoulder -13.421021 -4.751378 -8.823917
RightArm 3.355264 -31.168949 87.109694
RightForeArm -23.460510 0.000000 20.788799
RightHand -14.244142 -0.000000 11.298701
RightHandThumb1 -24.326973 -0.000000 -32.862282
LeftUpLeg -7.181502 -1.994224 -6.020525
LeftLeg 16.281522 -0.000000 -0.000000
LeftFoot -25.609386 23.439364 -15.319184
LeftToeBase 10.232070 -0.000000 -0.000000
RightUpLeg -37.344260 -7.974137 -1.311166
RightLeg -0.866535 -0.000000 0.000000
RightFoot -20.554795 -12.926183 12.243001
RightToeBase -13.781565 -0.000000 0.000000
1334
root -1.640728 31.723775 -5.130887 3.887193 7.885163 -3.868177
Spine -1.900769 -6.582047 0.124174
Head 23.982936 -3.182381 6.599872
LeftShoulder -16.439516 14.588725 15.526028
LeftArm 12.261042 -43.807697 -72.451951
LeftForeArm -4.791409 -0.000000 74.597845
LeftHand -10.884353 -0.000000 28.103502
LeftHandThumb1 -26.253704 0.000000 33.147579
RightShoulder -13.499691 -4.810316 -8.758510
RightArm 3.280082 -30.926794 87.077918
RightForeArm -23.493045 -0.000000 21.067293
RightHand -14.263101 0.000000 11.305208
RightHandThumb1 -24.326973 -0.000000 -32.862282
LeftUpLeg -7.200098 -1.981318 -6.048696
LeftLeg 16.306019 -0.000000 -0.000000
LeftFoot -25.580104 23.315079 -15.343016
LeftToeBase 10.278400 -0.000000 -0.000000
RightUpLeg -37.601832 -7.945963 -1.505726
RightLeg -0.692708 -0.000000 0.000000
RightFoot -20.765293 -13.339484 12.334391
RightToeBase -13.682800 -0.000000 0.000000
1335
root -1.638255 31.724121 -5.134368 3.882119 7.954834 -3.839131
Spine -1.905720 -6.691479 0.122683
Head 24.021325 -3.084487 6.525203
LeftShoulder -16.377963 14.549519 15.594789
LeftArm 12.261552 -43.790416 -72.210991
LeftForeArm -4.951817 -0.000000 74.033040
LeftHand -10.885511 -0.000000 28.391022
LeftHandThumb1 -26.253704 0.000000 33.147579
RightShoulder -13.566753 -4.858868 -8.711928
RightArm 3.249090 -30.790728 87.026310
RightForeArm -23.440267 -0.000000 21.257375
RightHand -14.231363 -0.000000 11.241282
RightHandThumb1 -24.326973 -0.000000 -32.862282
LeftUpLeg -7.210462 -1.974564 -6.074120
LeftLeg 16.341484 -0.000000 -0.000000
LeftFoot -25.548081 23.103179 -15.540002
LeftToeBase 10.009313 -0.000000 -0.000000
RightUpLeg -37.830252 -7.873755 -1.728467
RightLeg -0.458563 -0.000000 0.000000
RightFoot -20.908479 -13.795796 12.256606
RightToeBase -13.912049 -0.000000 0.000000
1336
root -1.636720 31.723935 -5.135213 3.848533 7.994442 -3.825185
Spine -1.878946 -6.772653 0.134368
Head 24.019433 -2.968086 6.445057
LeftShoulder -16.332749 14.494084 15.665139
LeftArm 12.225119 -43.758394 -71.965926
LeftForeArm -5.012235 0.000000 73.481336
LeftHand -10.797892 -0.000000 28.557338
LeftHandThumb1 -26.253704 0.000000 33.147579
RightShoulder -13.646322 -4.898422 -8.670829
RightArm 3.254762 -30.701928 86.967197
RightForeArm -23.345839 -0.000000 21.404132
RightHand -14.182078 0.000000 11.227475
RightHandThumb1 -24.326973 -0.000000 -32.862282
LeftUpLeg -7.188867 -1.913841 -6.083901
LeftLeg 16.366612 -0.000000 -0.000000
LeftFoot -25.547350 22.978138 -15.562666
LeftToeBase 10.082782 -0.000000 -0.000000
RightUpLeg -37.999325 -7.706427 -2.003241
RightLeg -0.198152 -0.000000 0.000000
RightFoot -21.054877 -14.268419 12.275361
RightToeBase -13.490311 -0.000000 0.000000
1337
root -1.634767 31.723577 -5.134420 3.815685 8.022521 -3.815965
Spine -1.859783 -6.855759 0.152226
Head 24.001667 -2.845431 6.373630
LeftShoulder -16.294007 14.409444 15.694822
LeftArm 12.143659 -43.761548 -71.648061
LeftForeArm -5.099619 -0.000000 72.983572
LeftHand -10.891117 -0.000000 28.851412
LeftHandThumb1 -26.253704 0.000000 33.147579
RightShoulder -13.692955 -4.947004 -8.633835
RightArm 3.253525 -30.524628 86.920831
RightForeArm -23.417081 -0.000000 21.555310
RightHand -14.140083 -0.000000 11.285906
RightHandThumb1 -24.326973 -0.000000 -32.862282
LeftUpLeg -7.165849 -1.831362 -6.092299
LeftLeg 16.391882 -0.000000 -0.000000
LeftFoot -25.522684 22.882497 -15.510181
LeftToeBase 10.168018 -0.000000 -0.000000
RightUpLeg -38.138000 -7.530959 -2.262150
RightLeg 0.080493 -0.000000 -0.000000
RightFoot -21.152786 -14.650613 12.176692
RightToeBase -13.598972 -0.000000 0.000000
